STARTFONT 2.1
COMMENT
COMMENT Converted from OpenType font "Xuong.otf" by "otf2bdf 3.0".
COMMENT
FONT -FreeType-Xuong-Bold-R-Normal--7-50-100-100-P-39-ISO10646-1
SIZE 5 100 100
FONTBOUNDINGBOX 8 8 -1 -1
STARTPROPERTIES 19
FOUNDRY "FreeType"
FAMILY_NAME "Xuong"
WEIGHT_NAME "Bold"
SLANT "R"
SETWIDTH_NAME "Normal"
ADD_STYLE_NAME ""
PIXEL_SIZE 7
POINT_SIZE 50
RESOLUTION_X 100
RESOLUTION_Y 100
SPACING "P"
AVERAGE_WIDTH 39
CHARSET_REGISTRY "ISO10646"
CHARSET_ENCODING "1"
FONT_ASCENT 6
FONT_DESCENT 1
COPYRIGHT "-FreeType-Xuong-Bold-R-Normal--7-50-100-100-P-39-ISO10646-1"
_OTF_FONTFILE "Xuong.otf"
_OTF_PSNAME "Xuong"
ENDPROPERTIES
CHARS 445
STARTCHAR 0000
ENCODING 0
SWIDTH 0 0
DWIDTH 0 0
BBX 0 0 0 0
BITMAP
ENDCHAR
STARTCHAR 000D
ENCODING 13
SWIDTH 144 0
DWIDTH 1 0
BBX 0 0 0 0
BITMAP
ENDCHAR
STARTCHAR 0020
ENCODING 32
SWIDTH 144 0
DWIDTH 1 0
BBX 0 0 0 0
BITMAP
ENDCHAR
STARTCHAR 0021
ENCODING 33
SWIDTH 144 0
DWIDTH 1 0
BBX 1 5 0 0
BITMAP
80
80
80
80
80
ENDCHAR
STARTCHAR 0022
ENCODING 34
SWIDTH 144 0
DWIDTH 1 0
BBX 2 2 0 3
BITMAP
C0
C0
ENDCHAR
STARTCHAR 0023
ENCODING 35
SWIDTH 720 0
DWIDTH 5 0
BBX 5 5 0 0
BITMAP
30
50
78
F8
60
ENDCHAR
STARTCHAR 0024
ENCODING 36
SWIDTH 432 0
DWIDTH 3 0
BBX 3 5 0 0
BITMAP
E0
C0
60
20
E0
ENDCHAR
STARTCHAR 0025
ENCODING 37
SWIDTH 576 0
DWIDTH 4 0
BBX 4 5 0 0
BITMAP
C0
E0
20
70
70
ENDCHAR
STARTCHAR 0026
ENCODING 38
SWIDTH 576 0
DWIDTH 4 0
BBX 5 5 0 0
BITMAP
60
50
E0
98
F8
ENDCHAR
STARTCHAR 0027
ENCODING 39
SWIDTH 0 0
DWIDTH 0 0
BBX 1 2 0 3
BITMAP
80
80
ENDCHAR
STARTCHAR 0028
ENCODING 40
SWIDTH 144 0
DWIDTH 1 0
BBX 1 4 0 1
BITMAP
80
80
80
80
ENDCHAR
STARTCHAR 0029
ENCODING 41
SWIDTH 144 0
DWIDTH 1 0
BBX 1 5 0 0
BITMAP
80
80
80
80
80
ENDCHAR
STARTCHAR 002A
ENCODING 42
SWIDTH 288 0
DWIDTH 2 0
BBX 2 3 0 2
BITMAP
C0
C0
40
ENDCHAR
STARTCHAR 002B
ENCODING 43
SWIDTH 288 0
DWIDTH 2 0
BBX 3 3 0 1
BITMAP
40
E0
40
ENDCHAR
STARTCHAR 002C
ENCODING 44
SWIDTH 144 0
DWIDTH 1 0
BBX 1 2 0 -1
BITMAP
80
80
ENDCHAR
STARTCHAR 002D
ENCODING 45
SWIDTH 288 0
DWIDTH 2 0
BBX 3 1 0 2
BITMAP
E0
ENDCHAR
STARTCHAR 002E
ENCODING 46
SWIDTH 144 0
DWIDTH 1 0
BBX 1 1 0 0
BITMAP
80
ENDCHAR
STARTCHAR 002F
ENCODING 47
SWIDTH 144 0
DWIDTH 1 0
BBX 2 5 0 0
BITMAP
40
40
80
80
80
ENDCHAR
STARTCHAR 0030
ENCODING 48
SWIDTH 576 0
DWIDTH 4 0
BBX 4 5 0 0
BITMAP
60
90
90
90
F0
ENDCHAR
STARTCHAR 0031
ENCODING 49
SWIDTH 288 0
DWIDTH 2 0
BBX 3 5 0 0
BITMAP
60
E0
60
60
60
ENDCHAR
STARTCHAR 0032
ENCODING 50
SWIDTH 432 0
DWIDTH 3 0
BBX 4 5 0 0
BITMAP
70
B0
20
40
F0
ENDCHAR
STARTCHAR 0033
ENCODING 51
SWIDTH 432 0
DWIDTH 3 0
BBX 3 5 0 0
BITMAP
E0
20
60
20
E0
ENDCHAR
STARTCHAR 0034
ENCODING 52
SWIDTH 576 0
DWIDTH 4 0
BBX 4 5 0 0
BITMAP
20
60
E0
F0
20
ENDCHAR
STARTCHAR 0035
ENCODING 53
SWIDTH 432 0
DWIDTH 3 0
BBX 3 5 0 0
BITMAP
E0
80
E0
20
E0
ENDCHAR
STARTCHAR 0036
ENCODING 54
SWIDTH 432 0
DWIDTH 3 0
BBX 3 5 0 0
BITMAP
E0
80
E0
A0
E0
ENDCHAR
STARTCHAR 0037
ENCODING 55
SWIDTH 432 0
DWIDTH 3 0
BBX 3 5 0 0
BITMAP
E0
20
60
40
40
ENDCHAR
STARTCHAR 0038
ENCODING 56
SWIDTH 576 0
DWIDTH 4 0
BBX 4 5 0 0
BITMAP
60
90
60
90
F0
ENDCHAR
STARTCHAR 0039
ENCODING 57
SWIDTH 432 0
DWIDTH 3 0
BBX 3 5 0 0
BITMAP
E0
A0
E0
20
E0
ENDCHAR
STARTCHAR 003A
ENCODING 58
SWIDTH 144 0
DWIDTH 1 0
BBX 1 1 0 2
BITMAP
80
ENDCHAR
STARTCHAR 003B
ENCODING 59
SWIDTH 144 0
DWIDTH 1 0
BBX 1 2 0 1
BITMAP
80
80
ENDCHAR
STARTCHAR 003C
ENCODING 60
SWIDTH 288 0
DWIDTH 2 0
BBX 3 4 0 1
BITMAP
20
40
80
60
ENDCHAR
STARTCHAR 003D
ENCODING 61
SWIDTH 288 0
DWIDTH 2 0
BBX 3 2 0 1
BITMAP
40
E0
ENDCHAR
STARTCHAR 003E
ENCODING 62
SWIDTH 288 0
DWIDTH 2 0
BBX 3 3 0 2
BITMAP
40
20
C0
ENDCHAR
STARTCHAR 003F
ENCODING 63
SWIDTH 432 0
DWIDTH 3 0
BBX 3 5 0 0
BITMAP
60
A0
20
60
60
ENDCHAR
STARTCHAR 0040
ENCODING 64
SWIDTH 720 0
DWIDTH 5 0
BBX 5 6 0 -1
BITMAP
F8
B8
D8
B8
D8
E0
ENDCHAR
STARTCHAR 0041
ENCODING 65
SWIDTH 576 0
DWIDTH 4 0
BBX 4 5 0 0
BITMAP
60
60
50
F0
90
ENDCHAR
STARTCHAR 0042
ENCODING 66
SWIDTH 576 0
DWIDTH 4 0
BBX 4 5 0 0
BITMAP
E0
90
E0
90
F0
ENDCHAR
STARTCHAR 0043
ENCODING 67
SWIDTH 432 0
DWIDTH 3 0
BBX 3 5 0 0
BITMAP
E0
80
80
80
E0
ENDCHAR
STARTCHAR 0044
ENCODING 68
SWIDTH 576 0
DWIDTH 4 0
BBX 4 5 0 0
BITMAP
E0
90
90
90
F0
ENDCHAR
STARTCHAR 0045
ENCODING 69
SWIDTH 432 0
DWIDTH 3 0
BBX 3 5 0 0
BITMAP
E0
80
E0
80
E0
ENDCHAR
STARTCHAR 0046
ENCODING 70
SWIDTH 432 0
DWIDTH 3 0
BBX 3 5 0 0
BITMAP
E0
80
E0
80
80
ENDCHAR
STARTCHAR 0047
ENCODING 71
SWIDTH 432 0
DWIDTH 3 0
BBX 4 5 0 0
BITMAP
E0
80
B0
B0
F0
ENDCHAR
STARTCHAR 0048
ENCODING 72
SWIDTH 576 0
DWIDTH 4 0
BBX 4 5 0 0
BITMAP
90
90
F0
90
90
ENDCHAR
STARTCHAR 0049
ENCODING 73
SWIDTH 144 0
DWIDTH 1 0
BBX 1 5 0 0
BITMAP
80
80
80
80
80
ENDCHAR
STARTCHAR 004A
ENCODING 74
SWIDTH 432 0
DWIDTH 3 0
BBX 3 5 0 0
BITMAP
60
20
20
20
E0
ENDCHAR
STARTCHAR 004B
ENCODING 75
SWIDTH 432 0
DWIDTH 3 0
BBX 4 5 0 0
BITMAP
B0
A0
C0
A0
B0
ENDCHAR
STARTCHAR 004C
ENCODING 76
SWIDTH 288 0
DWIDTH 2 0
BBX 3 5 0 0
BITMAP
80
80
80
80
E0
ENDCHAR
STARTCHAR 004D
ENCODING 77
SWIDTH 576 0
DWIDTH 4 0
BBX 5 5 0 0
BITMAP
50
D8
B8
B8
98
ENDCHAR
STARTCHAR 004E
ENCODING 78
SWIDTH 432 0
DWIDTH 3 0
BBX 4 5 0 0
BITMAP
50
D0
D0
B0
A0
ENDCHAR
STARTCHAR 004F
ENCODING 79
SWIDTH 576 0
DWIDTH 4 0
BBX 4 5 0 0
BITMAP
70
90
90
90
F0
ENDCHAR
STARTCHAR 0050
ENCODING 80
SWIDTH 432 0
DWIDTH 3 0
BBX 3 5 0 0
BITMAP
E0
A0
E0
80
80
ENDCHAR
STARTCHAR 0051
ENCODING 81
SWIDTH 576 0
DWIDTH 4 0
BBX 4 5 0 0
BITMAP
70
90
90
90
F0
ENDCHAR
STARTCHAR 0052
ENCODING 82
SWIDTH 432 0
DWIDTH 3 0
BBX 4 5 0 0
BITMAP
E0
A0
E0
A0
B0
ENDCHAR
STARTCHAR 0053
ENCODING 83
SWIDTH 432 0
DWIDTH 3 0
BBX 3 5 0 0
BITMAP
E0
C0
60
20
E0
ENDCHAR
STARTCHAR 0054
ENCODING 84
SWIDTH 432 0
DWIDTH 3 0
BBX 4 5 0 0
BITMAP
E0
D0
40
40
40
ENDCHAR
STARTCHAR 0055
ENCODING 85
SWIDTH 576 0
DWIDTH 4 0
BBX 4 5 0 0
BITMAP
90
90
90
90
F0
ENDCHAR
STARTCHAR 0056
ENCODING 86
SWIDTH 576 0
DWIDTH 4 0
BBX 4 5 0 0
BITMAP
90
90
A0
60
60
ENDCHAR
STARTCHAR 0057
ENCODING 87
SWIDTH 864 0
DWIDTH 6 0
BBX 6 5 0 0
BITMAP
84
C4
78
78
68
ENDCHAR
STARTCHAR 0058
ENCODING 88
SWIDTH 576 0
DWIDTH 4 0
BBX 4 5 0 0
BITMAP
90
70
60
70
D0
ENDCHAR
STARTCHAR 0059
ENCODING 89
SWIDTH 432 0
DWIDTH 3 0
BBX 3 5 0 0
BITMAP
A0
A0
40
40
40
ENDCHAR
STARTCHAR 005A
ENCODING 90
SWIDTH 432 0
DWIDTH 3 0
BBX 4 5 0 0
BITMAP
E0
20
60
40
F0
ENDCHAR
STARTCHAR 005B
ENCODING 91
SWIDTH 144 0
DWIDTH 1 0
BBX 1 5 0 0
BITMAP
80
80
80
80
80
ENDCHAR
STARTCHAR 005C
ENCODING 92
SWIDTH 144 0
DWIDTH 1 0
BBX 2 5 0 0
BITMAP
80
80
80
40
40
ENDCHAR
STARTCHAR 005D
ENCODING 93
SWIDTH 144 0
DWIDTH 1 0
BBX 2 5 0 0
BITMAP
C0
40
40
40
40
ENDCHAR
STARTCHAR 005E
ENCODING 94
SWIDTH 576 0
DWIDTH 4 0
BBX 4 3 0 2
BITMAP
60
60
90
ENDCHAR
STARTCHAR 005F
ENCODING 95
SWIDTH 288 0
DWIDTH 2 0
BBX 3 1 0 0
BITMAP
E0
ENDCHAR
STARTCHAR 0060
ENCODING 96
SWIDTH 288 0
DWIDTH 2 0
BBX 2 1 0 5
BITMAP
C0
ENDCHAR
STARTCHAR 0061
ENCODING 97
SWIDTH 576 0
DWIDTH 4 0
BBX 4 5 0 0
BITMAP
60
60
50
F0
90
ENDCHAR
STARTCHAR 0062
ENCODING 98
SWIDTH 576 0
DWIDTH 4 0
BBX 4 5 0 0
BITMAP
E0
90
E0
90
F0
ENDCHAR
STARTCHAR 0063
ENCODING 99
SWIDTH 432 0
DWIDTH 3 0
BBX 3 5 0 0
BITMAP
E0
80
80
80
E0
ENDCHAR
STARTCHAR 0064
ENCODING 100
SWIDTH 576 0
DWIDTH 4 0
BBX 4 5 0 0
BITMAP
E0
90
90
90
F0
ENDCHAR
STARTCHAR 0065
ENCODING 101
SWIDTH 432 0
DWIDTH 3 0
BBX 3 5 0 0
BITMAP
E0
80
E0
80
E0
ENDCHAR
STARTCHAR 0066
ENCODING 102
SWIDTH 432 0
DWIDTH 3 0
BBX 3 5 0 0
BITMAP
E0
80
E0
80
80
ENDCHAR
STARTCHAR 0067
ENCODING 103
SWIDTH 432 0
DWIDTH 3 0
BBX 4 5 0 0
BITMAP
E0
80
B0
B0
F0
ENDCHAR
STARTCHAR 0068
ENCODING 104
SWIDTH 576 0
DWIDTH 4 0
BBX 4 5 0 0
BITMAP
90
90
F0
90
90
ENDCHAR
STARTCHAR 0069
ENCODING 105
SWIDTH 144 0
DWIDTH 1 0
BBX 1 5 0 0
BITMAP
80
80
80
80
80
ENDCHAR
STARTCHAR 006A
ENCODING 106
SWIDTH 432 0
DWIDTH 3 0
BBX 3 5 0 0
BITMAP
60
20
20
20
E0
ENDCHAR
STARTCHAR 006B
ENCODING 107
SWIDTH 432 0
DWIDTH 3 0
BBX 4 5 0 0
BITMAP
B0
A0
C0
A0
B0
ENDCHAR
STARTCHAR 006C
ENCODING 108
SWIDTH 288 0
DWIDTH 2 0
BBX 3 5 0 0
BITMAP
80
80
80
80
E0
ENDCHAR
STARTCHAR 006D
ENCODING 109
SWIDTH 576 0
DWIDTH 4 0
BBX 5 5 0 0
BITMAP
50
D8
B8
B8
98
ENDCHAR
STARTCHAR 006E
ENCODING 110
SWIDTH 432 0
DWIDTH 3 0
BBX 4 5 0 0
BITMAP
50
D0
D0
B0
A0
ENDCHAR
STARTCHAR 006F
ENCODING 111
SWIDTH 576 0
DWIDTH 4 0
BBX 4 5 0 0
BITMAP
70
90
90
90
F0
ENDCHAR
STARTCHAR 0070
ENCODING 112
SWIDTH 432 0
DWIDTH 3 0
BBX 3 5 0 0
BITMAP
E0
A0
E0
80
80
ENDCHAR
STARTCHAR 0071
ENCODING 113
SWIDTH 576 0
DWIDTH 4 0
BBX 4 5 0 0
BITMAP
70
90
90
90
F0
ENDCHAR
STARTCHAR 0072
ENCODING 114
SWIDTH 432 0
DWIDTH 3 0
BBX 4 5 0 0
BITMAP
E0
A0
E0
A0
B0
ENDCHAR
STARTCHAR 0073
ENCODING 115
SWIDTH 432 0
DWIDTH 3 0
BBX 3 5 0 0
BITMAP
E0
C0
60
20
E0
ENDCHAR
STARTCHAR 0074
ENCODING 116
SWIDTH 432 0
DWIDTH 3 0
BBX 4 5 0 0
BITMAP
E0
D0
40
40
40
ENDCHAR
STARTCHAR 0075
ENCODING 117
SWIDTH 576 0
DWIDTH 4 0
BBX 4 5 0 0
BITMAP
90
90
90
90
F0
ENDCHAR
STARTCHAR 0076
ENCODING 118
SWIDTH 576 0
DWIDTH 4 0
BBX 4 5 0 0
BITMAP
90
90
A0
60
60
ENDCHAR
STARTCHAR 0077
ENCODING 119
SWIDTH 864 0
DWIDTH 6 0
BBX 6 5 0 0
BITMAP
84
C4
78
78
68
ENDCHAR
STARTCHAR 0078
ENCODING 120
SWIDTH 576 0
DWIDTH 4 0
BBX 4 5 0 0
BITMAP
90
70
60
70
D0
ENDCHAR
STARTCHAR 0079
ENCODING 121
SWIDTH 432 0
DWIDTH 3 0
BBX 3 5 0 0
BITMAP
A0
A0
40
40
40
ENDCHAR
STARTCHAR 007A
ENCODING 122
SWIDTH 432 0
DWIDTH 3 0
BBX 4 5 0 0
BITMAP
E0
20
60
40
F0
ENDCHAR
STARTCHAR 007B
ENCODING 123
SWIDTH 288 0
DWIDTH 2 0
BBX 2 5 0 0
BITMAP
40
80
80
80
80
ENDCHAR
STARTCHAR 007C
ENCODING 124
SWIDTH 0 0
DWIDTH 0 0
BBX 1 5 0 0
BITMAP
80
80
80
80
80
ENDCHAR
STARTCHAR 007D
ENCODING 125
SWIDTH 288 0
DWIDTH 2 0
BBX 2 5 0 0
BITMAP
80
80
40
80
80
ENDCHAR
STARTCHAR 007E
ENCODING 126
SWIDTH 432 0
DWIDTH 3 0
BBX 3 1 0 2
BITMAP
E0
ENDCHAR
STARTCHAR 00A1
ENCODING 161
SWIDTH 144 0
DWIDTH 1 0
BBX 1 5 0 0
BITMAP
80
80
80
80
80
ENDCHAR
STARTCHAR 00A2
ENCODING 162
SWIDTH 432 0
DWIDTH 3 0
BBX 3 7 0 -1
BITMAP
40
E0
80
80
80
E0
40
ENDCHAR
STARTCHAR 00A3
ENCODING 163
SWIDTH 432 0
DWIDTH 3 0
BBX 3 5 0 0
BITMAP
E0
A0
E0
40
E0
ENDCHAR
STARTCHAR 00A4
ENCODING 164
SWIDTH 288 0
DWIDTH 2 0
BBX 2 1 0 1
BITMAP
C0
ENDCHAR
STARTCHAR 00A5
ENCODING 165
SWIDTH 432 0
DWIDTH 3 0
BBX 3 5 0 0
BITMAP
A0
A0
40
40
40
ENDCHAR
STARTCHAR 00A6
ENCODING 166
SWIDTH 0 0
DWIDTH 0 0
BBX 1 5 0 0
BITMAP
80
80
00
80
80
ENDCHAR
STARTCHAR 00A7
ENCODING 167
SWIDTH 432 0
DWIDTH 3 0
BBX 3 5 0 0
BITMAP
E0
40
A0
60
E0
ENDCHAR
STARTCHAR 00A8
ENCODING 168
SWIDTH 288 0
DWIDTH 2 0
BBX 2 1 0 5
BITMAP
C0
ENDCHAR
STARTCHAR 00A9
ENCODING 169
SWIDTH 720 0
DWIDTH 5 0
BBX 5 5 0 0
BITMAP
F8
A8
C8
B8
F8
ENDCHAR
STARTCHAR 00AB
ENCODING 171
SWIDTH 432 0
DWIDTH 3 0
BBX 3 3 0 1
BITMAP
40
E0
60
ENDCHAR
STARTCHAR 00AC
ENCODING 172
SWIDTH 432 0
DWIDTH 3 0
BBX 4 2 0 1
BITMAP
F0
10
ENDCHAR
STARTCHAR 00AE
ENCODING 174
SWIDTH 288 0
DWIDTH 2 0
BBX 3 3 0 2
BITMAP
E0
E0
E0
ENDCHAR
STARTCHAR 00AF
ENCODING 175
SWIDTH 288 0
DWIDTH 2 0
BBX 3 1 0 5
BITMAP
E0
ENDCHAR
STARTCHAR 00B0
ENCODING 176
SWIDTH 144 0
DWIDTH 1 0
BBX 2 2 0 3
BITMAP
C0
80
ENDCHAR
STARTCHAR 00B1
ENCODING 177
SWIDTH 288 0
DWIDTH 2 0
BBX 3 4 0 0
BITMAP
40
E0
40
E0
ENDCHAR
STARTCHAR 00B4
ENCODING 180
SWIDTH 288 0
DWIDTH 2 0
BBX 2 1 0 5
BITMAP
C0
ENDCHAR
STARTCHAR 00B6
ENCODING 182
SWIDTH 288 0
DWIDTH 2 0
BBX 3 5 0 0
BITMAP
E0
E0
20
20
20
ENDCHAR
STARTCHAR 00B7
ENCODING 183
SWIDTH 144 0
DWIDTH 1 0
BBX 1 1 0 2
BITMAP
80
ENDCHAR
STARTCHAR 00B8
ENCODING 184
SWIDTH 144 0
DWIDTH 1 0
BBX 1 1 0 -1
BITMAP
80
ENDCHAR
STARTCHAR 00BB
ENCODING 187
SWIDTH 432 0
DWIDTH 3 0
BBX 3 2 0 2
BITMAP
60
C0
ENDCHAR
STARTCHAR 00BC
ENCODING 188
SWIDTH 576 0
DWIDTH 4 0
BBX 4 5 0 0
BITMAP
80
A0
40
70
B0
ENDCHAR
STARTCHAR 00BD
ENCODING 189
SWIDTH 576 0
DWIDTH 4 0
BBX 4 5 0 0
BITMAP
80
A0
40
50
90
ENDCHAR
STARTCHAR 00BE
ENCODING 190
SWIDTH 576 0
DWIDTH 4 0
BBX 4 5 0 0
BITMAP
D0
60
E0
50
70
ENDCHAR
STARTCHAR 00BF
ENCODING 191
SWIDTH 432 0
DWIDTH 3 0
BBX 3 5 0 0
BITMAP
40
40
40
80
E0
ENDCHAR
STARTCHAR 00C0
ENCODING 192
SWIDTH 576 0
DWIDTH 4 0
BBX 4 6 0 0
BITMAP
60
60
60
50
F0
90
ENDCHAR
STARTCHAR 00C1
ENCODING 193
SWIDTH 576 0
DWIDTH 4 0
BBX 4 6 0 0
BITMAP
60
60
60
50
F0
90
ENDCHAR
STARTCHAR 00C2
ENCODING 194
SWIDTH 576 0
DWIDTH 4 0
BBX 4 6 0 0
BITMAP
60
60
60
50
F0
90
ENDCHAR
STARTCHAR 00C3
ENCODING 195
SWIDTH 576 0
DWIDTH 4 0
BBX 4 6 0 0
BITMAP
60
60
60
50
F0
90
ENDCHAR
STARTCHAR 00C4
ENCODING 196
SWIDTH 576 0
DWIDTH 4 0
BBX 4 6 0 0
BITMAP
60
60
60
50
F0
90
ENDCHAR
STARTCHAR 00C5
ENCODING 197
SWIDTH 576 0
DWIDTH 4 0
BBX 4 6 0 0
BITMAP
20
60
60
50
F0
90
ENDCHAR
STARTCHAR 00C6
ENCODING 198
SWIDTH 720 0
DWIDTH 5 0
BBX 5 5 0 0
BITMAP
78
60
78
E0
B8
ENDCHAR
STARTCHAR 00C7
ENCODING 199
SWIDTH 432 0
DWIDTH 3 0
BBX 3 6 0 -1
BITMAP
E0
80
80
80
E0
40
ENDCHAR
STARTCHAR 00C8
ENCODING 200
SWIDTH 432 0
DWIDTH 3 0
BBX 3 6 0 0
BITMAP
60
E0
80
E0
80
E0
ENDCHAR
STARTCHAR 00C9
ENCODING 201
SWIDTH 432 0
DWIDTH 3 0
BBX 3 6 0 0
BITMAP
60
E0
80
E0
80
E0
ENDCHAR
STARTCHAR 00CA
ENCODING 202
SWIDTH 432 0
DWIDTH 3 0
BBX 3 6 0 0
BITMAP
E0
E0
80
E0
80
E0
ENDCHAR
STARTCHAR 00CB
ENCODING 203
SWIDTH 432 0
DWIDTH 3 0
BBX 3 6 0 0
BITMAP
60
E0
80
E0
80
E0
ENDCHAR
STARTCHAR 00CC
ENCODING 204
SWIDTH 144 0
DWIDTH 1 0
BBX 2 6 0 0
BITMAP
C0
80
80
80
80
80
ENDCHAR
STARTCHAR 00CD
ENCODING 205
SWIDTH 144 0
DWIDTH 1 0
BBX 2 6 0 0
BITMAP
C0
80
80
80
80
80
ENDCHAR
STARTCHAR 00CE
ENCODING 206
SWIDTH 432 0
DWIDTH 3 0
BBX 3 6 0 0
BITMAP
E0
40
40
40
40
40
ENDCHAR
STARTCHAR 00CF
ENCODING 207
SWIDTH 144 0
DWIDTH 1 0
BBX 2 6 0 0
BITMAP
C0
80
80
80
80
80
ENDCHAR
STARTCHAR 00D0
ENCODING 208
SWIDTH 576 0
DWIDTH 4 0
BBX 4 5 0 0
BITMAP
E0
90
D0
90
F0
ENDCHAR
STARTCHAR 00D1
ENCODING 209
SWIDTH 432 0
DWIDTH 3 0
BBX 4 6 0 0
BITMAP
60
50
D0
D0
B0
A0
ENDCHAR
STARTCHAR 00D2
ENCODING 210
SWIDTH 576 0
DWIDTH 4 0
BBX 4 6 0 0
BITMAP
60
70
90
90
90
F0
ENDCHAR
STARTCHAR 00D3
ENCODING 211
SWIDTH 576 0
DWIDTH 4 0
BBX 4 6 0 0
BITMAP
60
70
90
90
90
F0
ENDCHAR
STARTCHAR 00D4
ENCODING 212
SWIDTH 576 0
DWIDTH 4 0
BBX 4 6 0 0
BITMAP
70
70
90
90
90
F0
ENDCHAR
STARTCHAR 00D5
ENCODING 213
SWIDTH 576 0
DWIDTH 4 0
BBX 4 6 0 0
BITMAP
70
70
90
90
90
F0
ENDCHAR
STARTCHAR 00D6
ENCODING 214
SWIDTH 576 0
DWIDTH 4 0
BBX 4 6 0 0
BITMAP
60
70
90
90
90
F0
ENDCHAR
STARTCHAR 00D7
ENCODING 215
SWIDTH 288 0
DWIDTH 2 0
BBX 3 2 0 1
BITMAP
40
A0
ENDCHAR
STARTCHAR 00D8
ENCODING 216
SWIDTH 576 0
DWIDTH 4 0
BBX 4 6 0 -1
BITMAP
70
B0
B0
D0
F0
80
ENDCHAR
STARTCHAR 00D9
ENCODING 217
SWIDTH 576 0
DWIDTH 4 0
BBX 4 6 0 0
BITMAP
60
90
90
90
90
F0
ENDCHAR
STARTCHAR 00DA
ENCODING 218
SWIDTH 576 0
DWIDTH 4 0
BBX 4 6 0 0
BITMAP
60
90
90
90
90
F0
ENDCHAR
STARTCHAR 00DB
ENCODING 219
SWIDTH 576 0
DWIDTH 4 0
BBX 4 6 0 0
BITMAP
70
90
90
90
90
F0
ENDCHAR
STARTCHAR 00DC
ENCODING 220
SWIDTH 576 0
DWIDTH 4 0
BBX 4 6 0 0
BITMAP
60
90
90
90
90
F0
ENDCHAR
STARTCHAR 00DD
ENCODING 221
SWIDTH 432 0
DWIDTH 3 0
BBX 3 6 0 0
BITMAP
E0
A0
A0
40
40
40
ENDCHAR
STARTCHAR 00DE
ENCODING 222
SWIDTH 432 0
DWIDTH 3 0
BBX 3 6 0 0
BITMAP
80
E0
A0
E0
80
80
ENDCHAR
STARTCHAR 00DF
ENCODING 223
SWIDTH 576 0
DWIDTH 4 0
BBX 4 5 0 0
BITMAP
60
90
A0
90
B0
ENDCHAR
STARTCHAR 00E0
ENCODING 224
SWIDTH 576 0
DWIDTH 4 0
BBX 4 6 0 0
BITMAP
60
60
60
50
F0
90
ENDCHAR
STARTCHAR 00E1
ENCODING 225
SWIDTH 576 0
DWIDTH 4 0
BBX 4 6 0 0
BITMAP
60
60
60
50
F0
90
ENDCHAR
STARTCHAR 00E2
ENCODING 226
SWIDTH 576 0
DWIDTH 4 0
BBX 4 6 0 0
BITMAP
60
60
60
50
F0
90
ENDCHAR
STARTCHAR 00E3
ENCODING 227
SWIDTH 576 0
DWIDTH 4 0
BBX 4 6 0 0
BITMAP
60
60
60
50
F0
90
ENDCHAR
STARTCHAR 00E4
ENCODING 228
SWIDTH 576 0
DWIDTH 4 0
BBX 4 6 0 0
BITMAP
60
60
60
50
F0
90
ENDCHAR
STARTCHAR 00E5
ENCODING 229
SWIDTH 576 0
DWIDTH 4 0
BBX 4 6 0 0
BITMAP
20
60
60
50
F0
90
ENDCHAR
STARTCHAR 00E6
ENCODING 230
SWIDTH 720 0
DWIDTH 5 0
BBX 5 5 0 0
BITMAP
78
60
78
E0
B8
ENDCHAR
STARTCHAR 00E7
ENCODING 231
SWIDTH 432 0
DWIDTH 3 0
BBX 3 6 0 -1
BITMAP
E0
80
80
80
E0
40
ENDCHAR
STARTCHAR 00E8
ENCODING 232
SWIDTH 432 0
DWIDTH 3 0
BBX 3 6 0 0
BITMAP
60
E0
80
E0
80
E0
ENDCHAR
STARTCHAR 00E9
ENCODING 233
SWIDTH 432 0
DWIDTH 3 0
BBX 3 6 0 0
BITMAP
60
E0
80
E0
80
E0
ENDCHAR
STARTCHAR 00EA
ENCODING 234
SWIDTH 432 0
DWIDTH 3 0
BBX 3 6 0 0
BITMAP
E0
E0
80
E0
80
E0
ENDCHAR
STARTCHAR 00EB
ENCODING 235
SWIDTH 432 0
DWIDTH 3 0
BBX 3 6 0 0
BITMAP
20
E0
80
E0
80
E0
ENDCHAR
STARTCHAR 00EC
ENCODING 236
SWIDTH 144 0
DWIDTH 1 0
BBX 2 6 0 0
BITMAP
C0
80
80
80
80
80
ENDCHAR
STARTCHAR 00ED
ENCODING 237
SWIDTH 144 0
DWIDTH 1 0
BBX 2 6 0 0
BITMAP
C0
80
80
80
80
80
ENDCHAR
STARTCHAR 00EE
ENCODING 238
SWIDTH 432 0
DWIDTH 3 0
BBX 3 6 0 0
BITMAP
E0
40
40
40
40
40
ENDCHAR
STARTCHAR 00EF
ENCODING 239
SWIDTH 144 0
DWIDTH 1 0
BBX 2 6 0 0
BITMAP
C0
80
80
80
80
80
ENDCHAR
STARTCHAR 00F0
ENCODING 240
SWIDTH 576 0
DWIDTH 4 0
BBX 4 5 0 0
BITMAP
E0
90
D0
90
F0
ENDCHAR
STARTCHAR 00F1
ENCODING 241
SWIDTH 432 0
DWIDTH 3 0
BBX 4 6 0 0
BITMAP
60
50
D0
D0
B0
A0
ENDCHAR
STARTCHAR 00F2
ENCODING 242
SWIDTH 576 0
DWIDTH 4 0
BBX 4 6 0 0
BITMAP
60
70
90
90
90
F0
ENDCHAR
STARTCHAR 00F3
ENCODING 243
SWIDTH 576 0
DWIDTH 4 0
BBX 4 6 0 0
BITMAP
60
70
90
90
90
F0
ENDCHAR
STARTCHAR 00F4
ENCODING 244
SWIDTH 576 0
DWIDTH 4 0
BBX 4 6 0 0
BITMAP
70
70
90
90
90
F0
ENDCHAR
STARTCHAR 00F5
ENCODING 245
SWIDTH 576 0
DWIDTH 4 0
BBX 4 6 0 0
BITMAP
70
70
90
90
90
F0
ENDCHAR
STARTCHAR 00F6
ENCODING 246
SWIDTH 576 0
DWIDTH 4 0
BBX 4 6 0 0
BITMAP
60
70
90
90
90
F0
ENDCHAR
STARTCHAR 00F7
ENCODING 247
SWIDTH 288 0
DWIDTH 2 0
BBX 3 3 0 1
BITMAP
40
E0
40
ENDCHAR
STARTCHAR 00F8
ENCODING 248
SWIDTH 576 0
DWIDTH 4 0
BBX 4 6 0 -1
BITMAP
70
B0
B0
D0
F0
80
ENDCHAR
STARTCHAR 00F9
ENCODING 249
SWIDTH 576 0
DWIDTH 4 0
BBX 4 6 0 0
BITMAP
60
90
90
90
90
F0
ENDCHAR
STARTCHAR 00FA
ENCODING 250
SWIDTH 576 0
DWIDTH 4 0
BBX 4 6 0 0
BITMAP
60
90
90
90
90
F0
ENDCHAR
STARTCHAR 00FB
ENCODING 251
SWIDTH 576 0
DWIDTH 4 0
BBX 4 6 0 0
BITMAP
70
90
90
90
90
F0
ENDCHAR
STARTCHAR 00FC
ENCODING 252
SWIDTH 576 0
DWIDTH 4 0
BBX 4 6 0 0
BITMAP
60
90
90
90
90
F0
ENDCHAR
STARTCHAR 00FD
ENCODING 253
SWIDTH 432 0
DWIDTH 3 0
BBX 3 6 0 0
BITMAP
E0
A0
A0
40
40
40
ENDCHAR
STARTCHAR 00FE
ENCODING 254
SWIDTH 432 0
DWIDTH 3 0
BBX 3 6 0 0
BITMAP
80
E0
A0
E0
80
80
ENDCHAR
STARTCHAR 00FF
ENCODING 255
SWIDTH 432 0
DWIDTH 3 0
BBX 3 6 0 0
BITMAP
20
A0
A0
40
40
40
ENDCHAR
STARTCHAR 0100
ENCODING 256
SWIDTH 576 0
DWIDTH 4 0
BBX 4 6 0 0
BITMAP
60
60
60
50
F0
90
ENDCHAR
STARTCHAR 0101
ENCODING 257
SWIDTH 576 0
DWIDTH 4 0
BBX 4 6 0 0
BITMAP
60
60
60
50
F0
90
ENDCHAR
STARTCHAR 0102
ENCODING 258
SWIDTH 576 0
DWIDTH 4 0
BBX 4 6 0 0
BITMAP
60
60
60
50
F0
90
ENDCHAR
STARTCHAR 0103
ENCODING 259
SWIDTH 576 0
DWIDTH 4 0
BBX 4 6 0 0
BITMAP
60
60
60
50
F0
90
ENDCHAR
STARTCHAR 0104
ENCODING 260
SWIDTH 576 0
DWIDTH 4 0
BBX 4 6 0 -1
BITMAP
60
60
50
F0
90
10
ENDCHAR
STARTCHAR 0105
ENCODING 261
SWIDTH 576 0
DWIDTH 4 0
BBX 4 6 0 -1
BITMAP
60
60
50
F0
90
10
ENDCHAR
STARTCHAR 0106
ENCODING 262
SWIDTH 432 0
DWIDTH 3 0
BBX 3 6 0 0
BITMAP
60
E0
80
80
80
E0
ENDCHAR
STARTCHAR 0107
ENCODING 263
SWIDTH 432 0
DWIDTH 3 0
BBX 3 6 0 0
BITMAP
60
E0
80
80
80
E0
ENDCHAR
STARTCHAR 0108
ENCODING 264
SWIDTH 432 0
DWIDTH 3 0
BBX 3 6 0 0
BITMAP
E0
E0
80
80
80
E0
ENDCHAR
STARTCHAR 0109
ENCODING 265
SWIDTH 432 0
DWIDTH 3 0
BBX 3 6 0 0
BITMAP
E0
E0
80
80
80
E0
ENDCHAR
STARTCHAR 010A
ENCODING 266
SWIDTH 432 0
DWIDTH 3 0
BBX 3 6 0 0
BITMAP
40
E0
80
80
80
E0
ENDCHAR
STARTCHAR 010B
ENCODING 267
SWIDTH 432 0
DWIDTH 3 0
BBX 3 6 0 0
BITMAP
40
E0
80
80
80
E0
ENDCHAR
STARTCHAR 010C
ENCODING 268
SWIDTH 432 0
DWIDTH 3 0
BBX 3 6 0 0
BITMAP
60
E0
80
80
80
E0
ENDCHAR
STARTCHAR 010D
ENCODING 269
SWIDTH 432 0
DWIDTH 3 0
BBX 3 6 0 0
BITMAP
60
E0
80
80
80
E0
ENDCHAR
STARTCHAR 010E
ENCODING 270
SWIDTH 576 0
DWIDTH 4 0
BBX 4 6 0 0
BITMAP
60
E0
90
90
90
F0
ENDCHAR
STARTCHAR 010F
ENCODING 271
SWIDTH 720 0
DWIDTH 5 0
BBX 5 5 0 0
BITMAP
E8
98
90
90
F0
ENDCHAR
STARTCHAR 0110
ENCODING 272
SWIDTH 576 0
DWIDTH 4 0
BBX 4 5 0 0
BITMAP
E0
90
D0
90
F0
ENDCHAR
STARTCHAR 0111
ENCODING 273
SWIDTH 576 0
DWIDTH 4 0
BBX 4 5 0 0
BITMAP
E0
90
D0
90
F0
ENDCHAR
STARTCHAR 0112
ENCODING 274
SWIDTH 432 0
DWIDTH 3 0
BBX 3 6 0 0
BITMAP
E0
E0
80
E0
80
E0
ENDCHAR
STARTCHAR 0113
ENCODING 275
SWIDTH 432 0
DWIDTH 3 0
BBX 3 6 0 0
BITMAP
E0
E0
80
E0
80
E0
ENDCHAR
STARTCHAR 0116
ENCODING 278
SWIDTH 432 0
DWIDTH 3 0
BBX 3 6 0 0
BITMAP
40
E0
80
E0
80
E0
ENDCHAR
STARTCHAR 0117
ENCODING 279
SWIDTH 432 0
DWIDTH 3 0
BBX 3 6 0 0
BITMAP
40
E0
80
E0
80
E0
ENDCHAR
STARTCHAR 0118
ENCODING 280
SWIDTH 432 0
DWIDTH 3 0
BBX 3 6 0 -1
BITMAP
E0
80
E0
80
E0
40
ENDCHAR
STARTCHAR 0119
ENCODING 281
SWIDTH 432 0
DWIDTH 3 0
BBX 3 6 0 -1
BITMAP
E0
80
E0
80
E0
40
ENDCHAR
STARTCHAR 011C
ENCODING 284
SWIDTH 432 0
DWIDTH 3 0
BBX 4 6 0 0
BITMAP
E0
E0
80
B0
B0
F0
ENDCHAR
STARTCHAR 011D
ENCODING 285
SWIDTH 432 0
DWIDTH 3 0
BBX 4 6 0 0
BITMAP
E0
E0
80
B0
B0
F0
ENDCHAR
STARTCHAR 011E
ENCODING 286
SWIDTH 432 0
DWIDTH 3 0
BBX 4 6 0 0
BITMAP
60
E0
80
B0
B0
F0
ENDCHAR
STARTCHAR 011F
ENCODING 287
SWIDTH 432 0
DWIDTH 3 0
BBX 4 6 0 0
BITMAP
60
E0
80
B0
B0
F0
ENDCHAR
STARTCHAR 0120
ENCODING 288
SWIDTH 432 0
DWIDTH 3 0
BBX 4 5 0 1
BITMAP
E0
80
B0
B0
F0
ENDCHAR
STARTCHAR 0121
ENCODING 289
SWIDTH 432 0
DWIDTH 3 0
BBX 4 5 0 1
BITMAP
E0
80
B0
B0
F0
ENDCHAR
STARTCHAR 0122
ENCODING 290
SWIDTH 432 0
DWIDTH 3 0
BBX 4 5 0 -1
BITMAP
E0
80
B0
B0
F0
ENDCHAR
STARTCHAR 0123
ENCODING 291
SWIDTH 432 0
DWIDTH 3 0
BBX 4 5 0 -1
BITMAP
E0
80
B0
B0
F0
ENDCHAR
STARTCHAR 0124
ENCODING 292
SWIDTH 576 0
DWIDTH 4 0
BBX 4 6 0 0
BITMAP
60
90
90
F0
90
90
ENDCHAR
STARTCHAR 0125
ENCODING 293
SWIDTH 576 0
DWIDTH 4 0
BBX 4 6 0 0
BITMAP
60
90
90
F0
90
90
ENDCHAR
STARTCHAR 0126
ENCODING 294
SWIDTH 576 0
DWIDTH 4 0
BBX 4 5 0 0
BITMAP
90
F0
F0
90
90
ENDCHAR
STARTCHAR 0127
ENCODING 295
SWIDTH 576 0
DWIDTH 4 0
BBX 4 5 0 0
BITMAP
90
F0
F0
90
90
ENDCHAR
STARTCHAR 0128
ENCODING 296
SWIDTH 144 0
DWIDTH 1 0
BBX 3 6 -1 0
BITMAP
E0
40
40
40
40
40
ENDCHAR
STARTCHAR 0129
ENCODING 297
SWIDTH 144 0
DWIDTH 1 0
BBX 3 6 -1 0
BITMAP
E0
40
40
40
40
40
ENDCHAR
STARTCHAR 012A
ENCODING 298
SWIDTH 144 0
DWIDTH 1 0
BBX 3 6 -1 0
BITMAP
E0
40
40
40
40
40
ENDCHAR
STARTCHAR 012B
ENCODING 299
SWIDTH 144 0
DWIDTH 1 0
BBX 3 6 -1 0
BITMAP
E0
40
40
40
40
40
ENDCHAR
STARTCHAR 012E
ENCODING 302
SWIDTH 144 0
DWIDTH 1 0
BBX 1 6 0 -1
BITMAP
80
80
80
80
80
80
ENDCHAR
STARTCHAR 012F
ENCODING 303
SWIDTH 144 0
DWIDTH 1 0
BBX 1 6 0 -1
BITMAP
80
80
80
80
80
80
ENDCHAR
STARTCHAR 0134
ENCODING 308
SWIDTH 432 0
DWIDTH 3 0
BBX 3 6 0 0
BITMAP
60
60
20
20
20
E0
ENDCHAR
STARTCHAR 0135
ENCODING 309
SWIDTH 432 0
DWIDTH 3 0
BBX 3 6 0 0
BITMAP
60
60
20
20
20
E0
ENDCHAR
STARTCHAR 0136
ENCODING 310
SWIDTH 432 0
DWIDTH 3 0
BBX 4 5 0 -1
BITMAP
B0
A0
C0
A0
B0
ENDCHAR
STARTCHAR 0137
ENCODING 311
SWIDTH 432 0
DWIDTH 3 0
BBX 4 5 0 -1
BITMAP
B0
A0
C0
A0
B0
ENDCHAR
STARTCHAR 0139
ENCODING 313
SWIDTH 288 0
DWIDTH 2 0
BBX 3 6 0 0
BITMAP
C0
80
80
80
80
E0
ENDCHAR
STARTCHAR 013A
ENCODING 314
SWIDTH 288 0
DWIDTH 2 0
BBX 3 6 0 0
BITMAP
C0
80
80
80
80
E0
ENDCHAR
STARTCHAR 013C
ENCODING 316
SWIDTH 288 0
DWIDTH 2 0
BBX 3 6 0 -1
BITMAP
80
80
80
80
E0
40
ENDCHAR
STARTCHAR 013D
ENCODING 317
SWIDTH 288 0
DWIDTH 2 0
BBX 3 6 0 0
BITMAP
C0
80
80
80
80
E0
ENDCHAR
STARTCHAR 013E
ENCODING 318
SWIDTH 288 0
DWIDTH 2 0
BBX 3 6 0 0
BITMAP
C0
80
80
80
80
E0
ENDCHAR
STARTCHAR 0141
ENCODING 321
SWIDTH 432 0
DWIDTH 3 0
BBX 3 5 0 0
BITMAP
40
60
C0
40
60
ENDCHAR
STARTCHAR 0142
ENCODING 322
SWIDTH 432 0
DWIDTH 3 0
BBX 3 5 0 0
BITMAP
40
60
C0
40
60
ENDCHAR
STARTCHAR 0143
ENCODING 323
SWIDTH 432 0
DWIDTH 3 0
BBX 4 6 0 0
BITMAP
60
50
D0
D0
B0
A0
ENDCHAR
STARTCHAR 0144
ENCODING 324
SWIDTH 432 0
DWIDTH 3 0
BBX 4 6 0 0
BITMAP
60
50
D0
D0
B0
A0
ENDCHAR
STARTCHAR 0145
ENCODING 325
SWIDTH 432 0
DWIDTH 3 0
BBX 4 5 0 -1
BITMAP
50
D0
D0
B0
A0
ENDCHAR
STARTCHAR 0146
ENCODING 326
SWIDTH 432 0
DWIDTH 3 0
BBX 4 5 0 -1
BITMAP
50
D0
D0
B0
A0
ENDCHAR
STARTCHAR 0147
ENCODING 327
SWIDTH 432 0
DWIDTH 3 0
BBX 4 6 0 0
BITMAP
60
50
D0
D0
B0
A0
ENDCHAR
STARTCHAR 0148
ENCODING 328
SWIDTH 432 0
DWIDTH 3 0
BBX 4 6 0 0
BITMAP
60
50
D0
D0
B0
A0
ENDCHAR
STARTCHAR 014C
ENCODING 332
SWIDTH 576 0
DWIDTH 4 0
BBX 4 6 0 0
BITMAP
70
70
90
90
90
F0
ENDCHAR
STARTCHAR 014D
ENCODING 333
SWIDTH 576 0
DWIDTH 4 0
BBX 4 6 0 0
BITMAP
70
70
90
90
90
F0
ENDCHAR
STARTCHAR 0150
ENCODING 336
SWIDTH 576 0
DWIDTH 4 0
BBX 4 6 0 0
BITMAP
20
70
90
90
90
F0
ENDCHAR
STARTCHAR 0151
ENCODING 337
SWIDTH 576 0
DWIDTH 4 0
BBX 4 6 0 0
BITMAP
20
70
90
90
90
F0
ENDCHAR
STARTCHAR 0152
ENCODING 338
SWIDTH 720 0
DWIDTH 5 0
BBX 5 5 0 0
BITMAP
78
B0
B8
B0
F8
ENDCHAR
STARTCHAR 0153
ENCODING 339
SWIDTH 720 0
DWIDTH 5 0
BBX 5 5 0 0
BITMAP
78
B0
B8
B0
F8
ENDCHAR
STARTCHAR 0154
ENCODING 340
SWIDTH 432 0
DWIDTH 3 0
BBX 4 6 0 0
BITMAP
60
E0
A0
E0
A0
B0
ENDCHAR
STARTCHAR 0155
ENCODING 341
SWIDTH 432 0
DWIDTH 3 0
BBX 4 6 0 0
BITMAP
60
E0
A0
E0
A0
B0
ENDCHAR
STARTCHAR 0156
ENCODING 342
SWIDTH 432 0
DWIDTH 3 0
BBX 4 5 0 -1
BITMAP
E0
A0
E0
A0
B0
ENDCHAR
STARTCHAR 0157
ENCODING 343
SWIDTH 432 0
DWIDTH 3 0
BBX 4 5 0 -1
BITMAP
E0
A0
E0
A0
B0
ENDCHAR
STARTCHAR 0158
ENCODING 344
SWIDTH 432 0
DWIDTH 3 0
BBX 4 6 0 0
BITMAP
60
E0
A0
E0
A0
B0
ENDCHAR
STARTCHAR 0159
ENCODING 345
SWIDTH 432 0
DWIDTH 3 0
BBX 4 6 0 0
BITMAP
60
E0
A0
E0
A0
B0
ENDCHAR
STARTCHAR 015C
ENCODING 348
SWIDTH 432 0
DWIDTH 3 0
BBX 3 6 0 0
BITMAP
E0
E0
C0
60
20
E0
ENDCHAR
STARTCHAR 015D
ENCODING 349
SWIDTH 432 0
DWIDTH 3 0
BBX 3 6 0 0
BITMAP
E0
E0
C0
60
20
E0
ENDCHAR
STARTCHAR 015E
ENCODING 350
SWIDTH 432 0
DWIDTH 3 0
BBX 3 6 0 -1
BITMAP
E0
C0
60
20
E0
40
ENDCHAR
STARTCHAR 015F
ENCODING 351
SWIDTH 432 0
DWIDTH 3 0
BBX 3 6 0 -1
BITMAP
E0
C0
60
20
E0
40
ENDCHAR
STARTCHAR 0160
ENCODING 352
SWIDTH 432 0
DWIDTH 3 0
BBX 3 6 0 0
BITMAP
60
E0
C0
60
20
E0
ENDCHAR
STARTCHAR 0161
ENCODING 353
SWIDTH 432 0
DWIDTH 3 0
BBX 3 6 0 0
BITMAP
60
E0
C0
60
20
E0
ENDCHAR
STARTCHAR 0162
ENCODING 354
SWIDTH 432 0
DWIDTH 3 0
BBX 4 6 0 -1
BITMAP
E0
D0
40
40
40
40
ENDCHAR
STARTCHAR 0163
ENCODING 355
SWIDTH 432 0
DWIDTH 3 0
BBX 4 6 0 -1
BITMAP
E0
D0
40
40
40
40
ENDCHAR
STARTCHAR 0164
ENCODING 356
SWIDTH 432 0
DWIDTH 3 0
BBX 4 6 0 0
BITMAP
60
E0
D0
40
40
40
ENDCHAR
STARTCHAR 0165
ENCODING 357
SWIDTH 432 0
DWIDTH 3 0
BBX 4 6 0 0
BITMAP
60
E0
D0
40
40
40
ENDCHAR
STARTCHAR 0166
ENCODING 358
SWIDTH 432 0
DWIDTH 3 0
BBX 4 5 0 0
BITMAP
E0
D0
E0
40
40
ENDCHAR
STARTCHAR 0167
ENCODING 359
SWIDTH 432 0
DWIDTH 3 0
BBX 4 5 0 0
BITMAP
E0
D0
E0
40
40
ENDCHAR
STARTCHAR 0168
ENCODING 360
SWIDTH 576 0
DWIDTH 4 0
BBX 4 6 0 0
BITMAP
70
90
90
90
90
F0
ENDCHAR
STARTCHAR 0169
ENCODING 361
SWIDTH 576 0
DWIDTH 4 0
BBX 4 6 0 0
BITMAP
70
90
90
90
90
F0
ENDCHAR
STARTCHAR 016A
ENCODING 362
SWIDTH 576 0
DWIDTH 4 0
BBX 4 6 0 0
BITMAP
60
90
90
90
90
F0
ENDCHAR
STARTCHAR 016B
ENCODING 363
SWIDTH 576 0
DWIDTH 4 0
BBX 4 6 0 0
BITMAP
60
90
90
90
90
F0
ENDCHAR
STARTCHAR 016E
ENCODING 366
SWIDTH 576 0
DWIDTH 4 0
BBX 4 6 0 0
BITMAP
20
90
90
90
90
F0
ENDCHAR
STARTCHAR 016F
ENCODING 367
SWIDTH 576 0
DWIDTH 4 0
BBX 4 6 0 0
BITMAP
20
90
90
90
90
F0
ENDCHAR
STARTCHAR 0170
ENCODING 368
SWIDTH 576 0
DWIDTH 4 0
BBX 4 6 0 0
BITMAP
20
90
90
90
90
F0
ENDCHAR
STARTCHAR 0171
ENCODING 369
SWIDTH 576 0
DWIDTH 4 0
BBX 4 6 0 0
BITMAP
20
90
90
90
90
F0
ENDCHAR
STARTCHAR 0172
ENCODING 370
SWIDTH 576 0
DWIDTH 4 0
BBX 4 6 0 -1
BITMAP
90
90
90
90
F0
20
ENDCHAR
STARTCHAR 0173
ENCODING 371
SWIDTH 576 0
DWIDTH 4 0
BBX 4 6 0 -1
BITMAP
90
90
90
90
F0
20
ENDCHAR
STARTCHAR 0174
ENCODING 372
SWIDTH 864 0
DWIDTH 6 0
BBX 6 6 0 0
BITMAP
30
84
C4
78
78
68
ENDCHAR
STARTCHAR 0175
ENCODING 373
SWIDTH 864 0
DWIDTH 6 0
BBX 6 6 0 0
BITMAP
30
84
C4
78
78
68
ENDCHAR
STARTCHAR 0176
ENCODING 374
SWIDTH 432 0
DWIDTH 3 0
BBX 3 6 0 0
BITMAP
E0
A0
A0
40
40
40
ENDCHAR
STARTCHAR 0177
ENCODING 375
SWIDTH 432 0
DWIDTH 3 0
BBX 3 6 0 0
BITMAP
E0
A0
A0
40
40
40
ENDCHAR
STARTCHAR 0178
ENCODING 376
SWIDTH 432 0
DWIDTH 3 0
BBX 3 6 0 0
BITMAP
20
A0
A0
40
40
40
ENDCHAR
STARTCHAR 017B
ENCODING 379
SWIDTH 432 0
DWIDTH 3 0
BBX 4 5 0 1
BITMAP
E0
20
60
40
F0
ENDCHAR
STARTCHAR 017C
ENCODING 380
SWIDTH 432 0
DWIDTH 3 0
BBX 4 5 0 1
BITMAP
E0
20
60
40
F0
ENDCHAR
STARTCHAR 017D
ENCODING 381
SWIDTH 432 0
DWIDTH 3 0
BBX 4 6 0 0
BITMAP
60
E0
20
60
40
F0
ENDCHAR
STARTCHAR 017E
ENCODING 382
SWIDTH 432 0
DWIDTH 3 0
BBX 4 6 0 0
BITMAP
60
E0
20
60
40
F0
ENDCHAR
STARTCHAR 01A0
ENCODING 416
SWIDTH 576 0
DWIDTH 4 0
BBX 4 5 0 0
BITMAP
70
90
90
90
F0
ENDCHAR
STARTCHAR 01A1
ENCODING 417
SWIDTH 576 0
DWIDTH 4 0
BBX 4 5 0 0
BITMAP
70
90
90
90
F0
ENDCHAR
STARTCHAR 01AF
ENCODING 431
SWIDTH 576 0
DWIDTH 4 0
BBX 4 5 0 0
BITMAP
90
90
90
90
F0
ENDCHAR
STARTCHAR 01B0
ENCODING 432
SWIDTH 576 0
DWIDTH 4 0
BBX 4 5 0 0
BITMAP
90
90
90
90
F0
ENDCHAR
STARTCHAR 0218
ENCODING 536
SWIDTH 432 0
DWIDTH 3 0
BBX 3 5 0 -1
BITMAP
E0
C0
60
20
E0
ENDCHAR
STARTCHAR 0219
ENCODING 537
SWIDTH 432 0
DWIDTH 3 0
BBX 3 5 0 -1
BITMAP
E0
C0
60
20
E0
ENDCHAR
STARTCHAR 021A
ENCODING 538
SWIDTH 432 0
DWIDTH 3 0
BBX 4 5 0 -1
BITMAP
E0
D0
40
40
40
ENDCHAR
STARTCHAR 021B
ENCODING 539
SWIDTH 432 0
DWIDTH 3 0
BBX 4 5 0 -1
BITMAP
E0
D0
40
40
40
ENDCHAR
STARTCHAR 0259
ENCODING 601
SWIDTH 432 0
DWIDTH 3 0
BBX 4 5 0 0
BITMAP
70
30
F0
B0
F0
ENDCHAR
STARTCHAR 02C6
ENCODING 710
SWIDTH 432 0
DWIDTH 3 0
BBX 3 1 0 5
BITMAP
E0
ENDCHAR
STARTCHAR 02C7
ENCODING 711
SWIDTH 288 0
DWIDTH 2 0
BBX 2 1 0 5
BITMAP
C0
ENDCHAR
STARTCHAR 02D8
ENCODING 728
SWIDTH 432 0
DWIDTH 3 0
BBX 3 1 0 5
BITMAP
E0
ENDCHAR
STARTCHAR 02D9
ENCODING 729
SWIDTH 144 0
DWIDTH 1 0
BBX 1 1 0 5
BITMAP
80
ENDCHAR
STARTCHAR 02DA
ENCODING 730
SWIDTH 144 0
DWIDTH 1 0
BBX 1 1 0 5
BITMAP
80
ENDCHAR
STARTCHAR 02DB
ENCODING 731
SWIDTH 144 0
DWIDTH 1 0
BBX 1 1 0 -1
BITMAP
80
ENDCHAR
STARTCHAR 02DC
ENCODING 732
SWIDTH 432 0
DWIDTH 3 0
BBX 3 1 0 5
BITMAP
E0
ENDCHAR
STARTCHAR 02DD
ENCODING 733
SWIDTH 144 0
DWIDTH 1 0
BBX 1 1 0 5
BITMAP
80
ENDCHAR
STARTCHAR 1E20
ENCODING 7712
SWIDTH 432 0
DWIDTH 3 0
BBX 4 6 0 0
BITMAP
E0
E0
80
B0
B0
F0
ENDCHAR
STARTCHAR 1E3E
ENCODING 7742
SWIDTH 576 0
DWIDTH 4 0
BBX 5 6 0 0
BITMAP
60
50
D8
B8
B8
98
ENDCHAR
STARTCHAR 1E3F
ENCODING 7743
SWIDTH 576 0
DWIDTH 4 0
BBX 5 6 0 0
BITMAP
60
50
D8
B8
B8
98
ENDCHAR
STARTCHAR 1E44
ENCODING 7748
SWIDTH 432 0
DWIDTH 3 0
BBX 4 5 0 1
BITMAP
50
D0
D0
B0
A0
ENDCHAR
STARTCHAR 1E45
ENCODING 7749
SWIDTH 432 0
DWIDTH 3 0
BBX 4 5 0 1
BITMAP
50
D0
D0
B0
A0
ENDCHAR
STARTCHAR 1E80
ENCODING 7808
SWIDTH 864 0
DWIDTH 6 0
BBX 6 6 0 0
BITMAP
30
84
C4
78
78
68
ENDCHAR
STARTCHAR 1E81
ENCODING 7809
SWIDTH 864 0
DWIDTH 6 0
BBX 6 6 0 0
BITMAP
30
84
C4
78
78
68
ENDCHAR
STARTCHAR 1E82
ENCODING 7810
SWIDTH 864 0
DWIDTH 6 0
BBX 6 6 0 0
BITMAP
30
84
C4
78
78
68
ENDCHAR
STARTCHAR 1E83
ENCODING 7811
SWIDTH 864 0
DWIDTH 6 0
BBX 6 6 0 0
BITMAP
30
84
C4
78
78
68
ENDCHAR
STARTCHAR 1E84
ENCODING 7812
SWIDTH 864 0
DWIDTH 6 0
BBX 6 6 0 0
BITMAP
30
84
C4
78
78
68
ENDCHAR
STARTCHAR 1E85
ENCODING 7813
SWIDTH 864 0
DWIDTH 6 0
BBX 6 6 0 0
BITMAP
30
84
C4
78
78
68
ENDCHAR
STARTCHAR 1EA0
ENCODING 7840
SWIDTH 576 0
DWIDTH 4 0
BBX 4 6 0 -1
BITMAP
60
60
50
F0
90
20
ENDCHAR
STARTCHAR 1EA1
ENCODING 7841
SWIDTH 576 0
DWIDTH 4 0
BBX 4 6 0 -1
BITMAP
60
60
50
F0
90
20
ENDCHAR
STARTCHAR 1EA2
ENCODING 7842
SWIDTH 576 0
DWIDTH 4 0
BBX 4 5 0 1
BITMAP
60
60
50
F0
90
ENDCHAR
STARTCHAR 1EA3
ENCODING 7843
SWIDTH 576 0
DWIDTH 4 0
BBX 4 5 0 1
BITMAP
60
60
50
F0
90
ENDCHAR
STARTCHAR 1EA4
ENCODING 7844
SWIDTH 576 0
DWIDTH 4 0
BBX 4 7 0 0
BITMAP
40
60
60
60
50
F0
90
ENDCHAR
STARTCHAR 1EA5
ENCODING 7845
SWIDTH 576 0
DWIDTH 4 0
BBX 4 7 0 0
BITMAP
40
60
60
60
50
F0
90
ENDCHAR
STARTCHAR 1EA6
ENCODING 7846
SWIDTH 576 0
DWIDTH 4 0
BBX 4 7 0 0
BITMAP
60
60
60
60
50
F0
90
ENDCHAR
STARTCHAR 1EA7
ENCODING 7847
SWIDTH 576 0
DWIDTH 4 0
BBX 4 7 0 0
BITMAP
60
60
60
60
50
F0
90
ENDCHAR
STARTCHAR 1EA8
ENCODING 7848
SWIDTH 576 0
DWIDTH 4 0
BBX 4 6 0 1
BITMAP
60
60
60
50
F0
90
ENDCHAR
STARTCHAR 1EA9
ENCODING 7849
SWIDTH 576 0
DWIDTH 4 0
BBX 4 6 0 1
BITMAP
60
60
60
50
F0
90
ENDCHAR
STARTCHAR 1EAA
ENCODING 7850
SWIDTH 576 0
DWIDTH 4 0
BBX 4 7 0 0
BITMAP
60
60
60
60
50
F0
90
ENDCHAR
STARTCHAR 1EAB
ENCODING 7851
SWIDTH 576 0
DWIDTH 4 0
BBX 4 7 0 0
BITMAP
60
60
60
60
50
F0
90
ENDCHAR
STARTCHAR 1EAC
ENCODING 7852
SWIDTH 576 0
DWIDTH 4 0
BBX 4 7 0 -1
BITMAP
60
60
60
50
F0
90
20
ENDCHAR
STARTCHAR 1EAD
ENCODING 7853
SWIDTH 576 0
DWIDTH 4 0
BBX 4 7 0 -1
BITMAP
60
60
60
50
F0
90
20
ENDCHAR
STARTCHAR 1EAE
ENCODING 7854
SWIDTH 576 0
DWIDTH 4 0
BBX 4 7 0 0
BITMAP
40
60
60
60
50
F0
90
ENDCHAR
STARTCHAR 1EAF
ENCODING 7855
SWIDTH 576 0
DWIDTH 4 0
BBX 4 7 0 0
BITMAP
40
60
60
60
50
F0
90
ENDCHAR
STARTCHAR 1EB0
ENCODING 7856
SWIDTH 576 0
DWIDTH 4 0
BBX 4 7 0 0
BITMAP
60
60
60
60
50
F0
90
ENDCHAR
STARTCHAR 1EB1
ENCODING 7857
SWIDTH 576 0
DWIDTH 4 0
BBX 4 7 0 0
BITMAP
60
60
60
60
50
F0
90
ENDCHAR
STARTCHAR 1EB2
ENCODING 7858
SWIDTH 576 0
DWIDTH 4 0
BBX 4 7 0 0
BITMAP
20
60
60
60
50
F0
90
ENDCHAR
STARTCHAR 1EB3
ENCODING 7859
SWIDTH 576 0
DWIDTH 4 0
BBX 4 7 0 0
BITMAP
20
60
60
60
50
F0
90
ENDCHAR
STARTCHAR 1EB4
ENCODING 7860
SWIDTH 576 0
DWIDTH 4 0
BBX 4 7 0 0
BITMAP
60
60
60
60
50
F0
90
ENDCHAR
STARTCHAR 1EB5
ENCODING 7861
SWIDTH 576 0
DWIDTH 4 0
BBX 4 7 0 0
BITMAP
60
60
60
60
50
F0
90
ENDCHAR
STARTCHAR 1EB6
ENCODING 7862
SWIDTH 576 0
DWIDTH 4 0
BBX 4 7 0 -1
BITMAP
60
60
60
50
F0
90
20
ENDCHAR
STARTCHAR 1EB7
ENCODING 7863
SWIDTH 576 0
DWIDTH 4 0
BBX 4 7 0 -1
BITMAP
60
60
60
50
F0
90
20
ENDCHAR
STARTCHAR 1EB8
ENCODING 7864
SWIDTH 432 0
DWIDTH 3 0
BBX 3 6 0 -1
BITMAP
E0
80
E0
80
E0
40
ENDCHAR
STARTCHAR 1EB9
ENCODING 7865
SWIDTH 432 0
DWIDTH 3 0
BBX 3 6 0 -1
BITMAP
E0
80
E0
80
E0
40
ENDCHAR
STARTCHAR 1EBA
ENCODING 7866
SWIDTH 432 0
DWIDTH 3 0
BBX 3 5 0 1
BITMAP
E0
80
E0
80
E0
ENDCHAR
STARTCHAR 1EBB
ENCODING 7867
SWIDTH 432 0
DWIDTH 3 0
BBX 3 5 0 1
BITMAP
E0
80
E0
80
E0
ENDCHAR
STARTCHAR 1EBC
ENCODING 7868
SWIDTH 432 0
DWIDTH 3 0
BBX 3 6 0 0
BITMAP
E0
E0
80
E0
80
E0
ENDCHAR
STARTCHAR 1EBD
ENCODING 7869
SWIDTH 432 0
DWIDTH 3 0
BBX 3 6 0 0
BITMAP
E0
E0
80
E0
80
E0
ENDCHAR
STARTCHAR 1EBE
ENCODING 7870
SWIDTH 432 0
DWIDTH 3 0
BBX 3 7 0 0
BITMAP
40
E0
E0
80
E0
80
E0
ENDCHAR
STARTCHAR 1EBF
ENCODING 7871
SWIDTH 432 0
DWIDTH 3 0
BBX 3 7 0 0
BITMAP
40
E0
E0
80
E0
80
E0
ENDCHAR
STARTCHAR 1EC0
ENCODING 7872
SWIDTH 432 0
DWIDTH 3 0
BBX 3 7 0 0
BITMAP
60
E0
E0
80
E0
80
E0
ENDCHAR
STARTCHAR 1EC1
ENCODING 7873
SWIDTH 432 0
DWIDTH 3 0
BBX 3 7 0 0
BITMAP
60
E0
E0
80
E0
80
E0
ENDCHAR
STARTCHAR 1EC2
ENCODING 7874
SWIDTH 432 0
DWIDTH 3 0
BBX 3 6 0 1
BITMAP
E0
E0
80
E0
80
E0
ENDCHAR
STARTCHAR 1EC3
ENCODING 7875
SWIDTH 432 0
DWIDTH 3 0
BBX 3 6 0 1
BITMAP
E0
E0
80
E0
80
E0
ENDCHAR
STARTCHAR 1EC4
ENCODING 7876
SWIDTH 432 0
DWIDTH 3 0
BBX 3 7 0 0
BITMAP
E0
E0
E0
80
E0
80
E0
ENDCHAR
STARTCHAR 1EC5
ENCODING 7877
SWIDTH 432 0
DWIDTH 3 0
BBX 3 7 0 0
BITMAP
E0
E0
E0
80
E0
80
E0
ENDCHAR
STARTCHAR 1EC6
ENCODING 7878
SWIDTH 432 0
DWIDTH 3 0
BBX 3 7 0 -1
BITMAP
E0
E0
80
E0
80
E0
40
ENDCHAR
STARTCHAR 1EC7
ENCODING 7879
SWIDTH 432 0
DWIDTH 3 0
BBX 3 7 0 -1
BITMAP
E0
E0
80
E0
80
E0
40
ENDCHAR
STARTCHAR 1EC8
ENCODING 7880
SWIDTH 144 0
DWIDTH 1 0
BBX 1 5 0 1
BITMAP
80
80
80
80
80
ENDCHAR
STARTCHAR 1EC9
ENCODING 7881
SWIDTH 144 0
DWIDTH 1 0
BBX 1 5 0 1
BITMAP
80
80
80
80
80
ENDCHAR
STARTCHAR 1ECA
ENCODING 7882
SWIDTH 144 0
DWIDTH 1 0
BBX 1 6 0 -1
BITMAP
80
80
80
80
80
80
ENDCHAR
STARTCHAR 1ECB
ENCODING 7883
SWIDTH 144 0
DWIDTH 1 0
BBX 1 6 0 -1
BITMAP
80
80
80
80
80
80
ENDCHAR
STARTCHAR 1ECC
ENCODING 7884
SWIDTH 576 0
DWIDTH 4 0
BBX 4 6 0 -1
BITMAP
70
90
90
90
F0
20
ENDCHAR
STARTCHAR 1ECD
ENCODING 7885
SWIDTH 576 0
DWIDTH 4 0
BBX 4 6 0 -1
BITMAP
70
90
90
90
F0
20
ENDCHAR
STARTCHAR 1ECE
ENCODING 7886
SWIDTH 576 0
DWIDTH 4 0
BBX 4 6 0 0
BITMAP
20
70
90
90
90
F0
ENDCHAR
STARTCHAR 1ECF
ENCODING 7887
SWIDTH 576 0
DWIDTH 4 0
BBX 4 6 0 0
BITMAP
20
70
90
90
90
F0
ENDCHAR
STARTCHAR 1ED0
ENCODING 7888
SWIDTH 576 0
DWIDTH 4 0
BBX 4 7 0 0
BITMAP
60
70
70
90
90
90
F0
ENDCHAR
STARTCHAR 1ED1
ENCODING 7889
SWIDTH 576 0
DWIDTH 4 0
BBX 4 7 0 0
BITMAP
60
70
70
90
90
90
F0
ENDCHAR
STARTCHAR 1ED2
ENCODING 7890
SWIDTH 576 0
DWIDTH 4 0
BBX 4 7 0 0
BITMAP
60
70
70
90
90
90
F0
ENDCHAR
STARTCHAR 1ED3
ENCODING 7891
SWIDTH 576 0
DWIDTH 4 0
BBX 4 7 0 0
BITMAP
60
70
70
90
90
90
F0
ENDCHAR
STARTCHAR 1ED4
ENCODING 7892
SWIDTH 576 0
DWIDTH 4 0
BBX 4 7 0 0
BITMAP
20
70
70
90
90
90
F0
ENDCHAR
STARTCHAR 1ED5
ENCODING 7893
SWIDTH 576 0
DWIDTH 4 0
BBX 4 7 0 0
BITMAP
20
70
70
90
90
90
F0
ENDCHAR
STARTCHAR 1ED6
ENCODING 7894
SWIDTH 576 0
DWIDTH 4 0
BBX 4 7 0 0
BITMAP
70
70
70
90
90
90
F0
ENDCHAR
STARTCHAR 1ED7
ENCODING 7895
SWIDTH 576 0
DWIDTH 4 0
BBX 4 7 0 0
BITMAP
70
70
70
90
90
90
F0
ENDCHAR
STARTCHAR 1ED8
ENCODING 7896
SWIDTH 576 0
DWIDTH 4 0
BBX 4 7 0 -1
BITMAP
70
70
90
90
90
F0
20
ENDCHAR
STARTCHAR 1ED9
ENCODING 7897
SWIDTH 576 0
DWIDTH 4 0
BBX 4 7 0 -1
BITMAP
70
70
90
90
90
F0
20
ENDCHAR
STARTCHAR 1EDA
ENCODING 7898
SWIDTH 576 0
DWIDTH 4 0
BBX 4 6 0 0
BITMAP
60
70
90
90
90
F0
ENDCHAR
STARTCHAR 1EDB
ENCODING 7899
SWIDTH 576 0
DWIDTH 4 0
BBX 4 6 0 0
BITMAP
60
70
90
90
90
F0
ENDCHAR
STARTCHAR 1EDC
ENCODING 7900
SWIDTH 576 0
DWIDTH 4 0
BBX 4 6 0 0
BITMAP
60
70
90
90
90
F0
ENDCHAR
STARTCHAR 1EDD
ENCODING 7901
SWIDTH 576 0
DWIDTH 4 0
BBX 4 6 0 0
BITMAP
60
70
90
90
90
F0
ENDCHAR
STARTCHAR 1EDE
ENCODING 7902
SWIDTH 576 0
DWIDTH 4 0
BBX 4 6 0 0
BITMAP
20
70
90
90
90
F0
ENDCHAR
STARTCHAR 1EDF
ENCODING 7903
SWIDTH 576 0
DWIDTH 4 0
BBX 4 6 0 0
BITMAP
20
70
90
90
90
F0
ENDCHAR
STARTCHAR 1EE0
ENCODING 7904
SWIDTH 576 0
DWIDTH 4 0
BBX 4 6 0 0
BITMAP
60
70
90
90
90
F0
ENDCHAR
STARTCHAR 1EE1
ENCODING 7905
SWIDTH 576 0
DWIDTH 4 0
BBX 4 6 0 0
BITMAP
60
70
90
90
90
F0
ENDCHAR
STARTCHAR 1EE2
ENCODING 7906
SWIDTH 576 0
DWIDTH 4 0
BBX 4 6 0 -1
BITMAP
70
90
90
90
F0
20
ENDCHAR
STARTCHAR 1EE3
ENCODING 7907
SWIDTH 576 0
DWIDTH 4 0
BBX 4 6 0 -1
BITMAP
70
90
90
90
F0
20
ENDCHAR
STARTCHAR 1EE4
ENCODING 7908
SWIDTH 576 0
DWIDTH 4 0
BBX 4 6 0 -1
BITMAP
90
90
90
90
F0
20
ENDCHAR
STARTCHAR 1EE5
ENCODING 7909
SWIDTH 576 0
DWIDTH 4 0
BBX 4 6 0 -1
BITMAP
90
90
90
90
F0
20
ENDCHAR
STARTCHAR 1EE6
ENCODING 7910
SWIDTH 576 0
DWIDTH 4 0
BBX 4 6 0 0
BITMAP
20
90
90
90
90
F0
ENDCHAR
STARTCHAR 1EE7
ENCODING 7911
SWIDTH 576 0
DWIDTH 4 0
BBX 4 6 0 0
BITMAP
20
90
90
90
90
F0
ENDCHAR
STARTCHAR 1EE8
ENCODING 7912
SWIDTH 576 0
DWIDTH 4 0
BBX 4 6 0 0
BITMAP
60
90
90
90
90
F0
ENDCHAR
STARTCHAR 1EE9
ENCODING 7913
SWIDTH 576 0
DWIDTH 4 0
BBX 4 6 0 0
BITMAP
60
90
90
90
90
F0
ENDCHAR
STARTCHAR 1EEA
ENCODING 7914
SWIDTH 576 0
DWIDTH 4 0
BBX 4 6 0 0
BITMAP
60
90
90
90
90
F0
ENDCHAR
STARTCHAR 1EEB
ENCODING 7915
SWIDTH 576 0
DWIDTH 4 0
BBX 4 6 0 0
BITMAP
60
90
90
90
90
F0
ENDCHAR
STARTCHAR 1EEC
ENCODING 7916
SWIDTH 576 0
DWIDTH 4 0
BBX 4 6 0 0
BITMAP
20
90
90
90
90
F0
ENDCHAR
STARTCHAR 1EED
ENCODING 7917
SWIDTH 576 0
DWIDTH 4 0
BBX 4 6 0 0
BITMAP
20
90
90
90
90
F0
ENDCHAR
STARTCHAR 1EEE
ENCODING 7918
SWIDTH 576 0
DWIDTH 4 0
BBX 4 6 0 0
BITMAP
60
90
90
90
90
F0
ENDCHAR
STARTCHAR 1EEF
ENCODING 7919
SWIDTH 576 0
DWIDTH 4 0
BBX 4 6 0 0
BITMAP
60
90
90
90
90
F0
ENDCHAR
STARTCHAR 1EF0
ENCODING 7920
SWIDTH 576 0
DWIDTH 4 0
BBX 4 6 0 -1
BITMAP
90
90
90
90
F0
20
ENDCHAR
STARTCHAR 1EF1
ENCODING 7921
SWIDTH 576 0
DWIDTH 4 0
BBX 4 6 0 -1
BITMAP
90
90
90
90
F0
20
ENDCHAR
STARTCHAR 1EF2
ENCODING 7922
SWIDTH 432 0
DWIDTH 3 0
BBX 3 6 0 0
BITMAP
E0
A0
A0
40
40
40
ENDCHAR
STARTCHAR 1EF3
ENCODING 7923
SWIDTH 432 0
DWIDTH 3 0
BBX 3 6 0 0
BITMAP
E0
A0
A0
40
40
40
ENDCHAR
STARTCHAR 1EF4
ENCODING 7924
SWIDTH 432 0
DWIDTH 3 0
BBX 3 6 0 -1
BITMAP
A0
A0
40
40
40
40
ENDCHAR
STARTCHAR 1EF5
ENCODING 7925
SWIDTH 432 0
DWIDTH 3 0
BBX 3 6 0 -1
BITMAP
A0
A0
40
40
40
40
ENDCHAR
STARTCHAR 1EF6
ENCODING 7926
SWIDTH 432 0
DWIDTH 3 0
BBX 3 6 0 0
BITMAP
40
A0
A0
40
40
40
ENDCHAR
STARTCHAR 1EF7
ENCODING 7927
SWIDTH 432 0
DWIDTH 3 0
BBX 3 6 0 0
BITMAP
40
A0
A0
40
40
40
ENDCHAR
STARTCHAR 1EF8
ENCODING 7928
SWIDTH 432 0
DWIDTH 3 0
BBX 3 6 0 0
BITMAP
E0
A0
A0
40
40
40
ENDCHAR
STARTCHAR 1EF9
ENCODING 7929
SWIDTH 432 0
DWIDTH 3 0
BBX 3 6 0 0
BITMAP
E0
A0
A0
40
40
40
ENDCHAR
STARTCHAR 2013
ENCODING 8211
SWIDTH 432 0
DWIDTH 3 0
BBX 3 1 0 2
BITMAP
E0
ENDCHAR
STARTCHAR 2014
ENCODING 8212
SWIDTH 864 0
DWIDTH 6 0
BBX 7 1 0 2
BITMAP
FE
ENDCHAR
STARTCHAR 2018
ENCODING 8216
SWIDTH 144 0
DWIDTH 1 0
BBX 1 2 0 3
BITMAP
80
80
ENDCHAR
STARTCHAR 2019
ENCODING 8217
SWIDTH 144 0
DWIDTH 1 0
BBX 1 1 0 4
BITMAP
80
ENDCHAR
STARTCHAR 201A
ENCODING 8218
SWIDTH 144 0
DWIDTH 1 0
BBX 1 2 0 -1
BITMAP
80
80
ENDCHAR
STARTCHAR 201C
ENCODING 8220
SWIDTH 288 0
DWIDTH 2 0
BBX 2 2 0 3
BITMAP
80
C0
ENDCHAR
STARTCHAR 201D
ENCODING 8221
SWIDTH 288 0
DWIDTH 2 0
BBX 2 1 0 4
BITMAP
C0
ENDCHAR
STARTCHAR 201E
ENCODING 8222
SWIDTH 288 0
DWIDTH 2 0
BBX 2 1 0 0
BITMAP
C0
ENDCHAR
STARTCHAR 2020
ENCODING 8224
SWIDTH 432 0
DWIDTH 3 0
BBX 2 5 1 0
BITMAP
80
80
C0
80
80
ENDCHAR
STARTCHAR 2021
ENCODING 8225
SWIDTH 432 0
DWIDTH 3 0
BBX 3 5 0 0
BITMAP
40
40
60
E0
40
ENDCHAR
STARTCHAR 2022
ENCODING 8226
SWIDTH 144 0
DWIDTH 1 0
BBX 1 1 0 2
BITMAP
80
ENDCHAR
STARTCHAR 2026
ENCODING 8230
SWIDTH 432 0
DWIDTH 3 0
BBX 2 1 0 0
BITMAP
C0
ENDCHAR
STARTCHAR 2030
ENCODING 8240
SWIDTH 864 0
DWIDTH 6 0
BBX 6 5 0 0
BITMAP
C0
E0
20
7C
7C
ENDCHAR
STARTCHAR 2039
ENCODING 8249
SWIDTH 144 0
DWIDTH 1 0
BBX 2 3 0 1
BITMAP
40
80
40
ENDCHAR
STARTCHAR 203A
ENCODING 8250
SWIDTH 144 0
DWIDTH 1 0
BBX 2 2 0 2
BITMAP
40
80
ENDCHAR
STARTCHAR 2044
ENCODING 8260
SWIDTH 288 0
DWIDTH 2 0
BBX 3 5 0 0
BITMAP
20
40
40
80
80
ENDCHAR
STARTCHAR 20AB
ENCODING 8363
SWIDTH 432 0
DWIDTH 3 0
BBX 3 5 0 0
BITMAP
E0
A0
A0
E0
E0
ENDCHAR
STARTCHAR 20AC
ENCODING 8364
SWIDTH 576 0
DWIDTH 4 0
BBX 3 5 1 0
BITMAP
E0
80
80
80
E0
ENDCHAR
STARTCHAR 2122
ENCODING 8482
SWIDTH 576 0
DWIDTH 4 0
BBX 4 3 0 2
BITMAP
F0
B0
20
ENDCHAR
STARTCHAR 215B
ENCODING 8539
SWIDTH 576 0
DWIDTH 4 0
BBX 4 5 0 0
BITMAP
80
A0
40
70
90
ENDCHAR
STARTCHAR 215C
ENCODING 8540
SWIDTH 576 0
DWIDTH 4 0
BBX 5 5 0 0
BITMAP
D0
60
E0
78
58
ENDCHAR
STARTCHAR 215D
ENCODING 8541
SWIDTH 576 0
DWIDTH 4 0
BBX 5 5 0 0
BITMAP
D0
E0
E0
78
58
ENDCHAR
STARTCHAR 215E
ENCODING 8542
SWIDTH 576 0
DWIDTH 4 0
BBX 4 5 0 0
BITMAP
C0
A0
40
70
B0
ENDCHAR
STARTCHAR 2190
ENCODING 8592
SWIDTH 288 0
DWIDTH 2 0
BBX 2 2 0 1
BITMAP
80
C0
ENDCHAR
STARTCHAR 2191
ENCODING 8593
SWIDTH 288 0
DWIDTH 2 0
BBX 2 2 0 1
BITMAP
C0
40
ENDCHAR
STARTCHAR 2192
ENCODING 8594
SWIDTH 288 0
DWIDTH 2 0
BBX 2 2 1 1
BITMAP
40
C0
ENDCHAR
STARTCHAR 2193
ENCODING 8595
SWIDTH 288 0
DWIDTH 2 0
BBX 2 2 0 1
BITMAP
40
C0
ENDCHAR
STARTCHAR 2194
ENCODING 8596
SWIDTH 432 0
DWIDTH 3 0
BBX 3 2 0 1
BITMAP
A0
E0
ENDCHAR
STARTCHAR 2195
ENCODING 8597
SWIDTH 288 0
DWIDTH 2 0
BBX 2 3 0 1
BITMAP
C0
40
C0
ENDCHAR
STARTCHAR 2196
ENCODING 8598
SWIDTH 288 0
DWIDTH 2 0
BBX 2 2 0 1
BITMAP
C0
C0
ENDCHAR
STARTCHAR 2197
ENCODING 8599
SWIDTH 288 0
DWIDTH 2 0
BBX 3 2 0 1
BITMAP
60
A0
ENDCHAR
STARTCHAR 2198
ENCODING 8600
SWIDTH 288 0
DWIDTH 2 0
BBX 3 2 0 1
BITMAP
A0
60
ENDCHAR
STARTCHAR 2199
ENCODING 8601
SWIDTH 288 0
DWIDTH 2 0
BBX 2 2 0 1
BITMAP
C0
C0
ENDCHAR
STARTCHAR 220F
ENCODING 8719
SWIDTH 432 0
DWIDTH 3 0
BBX 3 5 0 0
BITMAP
E0
A0
A0
A0
A0
ENDCHAR
STARTCHAR 2211
ENCODING 8721
SWIDTH 288 0
DWIDTH 2 0
BBX 3 5 0 0
BITMAP
E0
80
40
80
E0
ENDCHAR
STARTCHAR 2212
ENCODING 8722
SWIDTH 288 0
DWIDTH 2 0
BBX 3 1 0 2
BITMAP
E0
ENDCHAR
STARTCHAR 221A
ENCODING 8730
SWIDTH 432 0
DWIDTH 3 0
BBX 5 6 0 0
BITMAP
18
20
20
A0
60
60
ENDCHAR
STARTCHAR 2260
ENCODING 8800
SWIDTH 288 0
DWIDTH 2 0
BBX 3 3 0 1
BITMAP
40
40
E0
ENDCHAR
STARTCHAR 2264
ENCODING 8804
SWIDTH 288 0
DWIDTH 2 0
BBX 3 5 0 0
BITMAP
20
C0
C0
20
E0
ENDCHAR
STARTCHAR 2265
ENCODING 8805
SWIDTH 288 0
DWIDTH 2 0
BBX 3 5 0 0
BITMAP
80
60
60
80
E0
ENDCHAR
ENDFONT
